<svg version="2" baseProfile="full" width="900" height="504" xmlns="http://www.w3.org/2000/svg">
  <defs>
    <filter id="shadow"><feDropShadow dx="2" dy="3" stdDeviation="1"/></filter>

    <rect id="minimal-box"
        width="240" height="180" rx="6" ry="6"
        fill="#f9e3e3" stroke="#ecb4a9" stroke-width="3"
    />

    <rect
        id="package-box" class="package-box"
        width="120" height="36" rx="12" ry="12"
    />
    <rect
        id="package-frozen-box" class="package-box"
        width="168" height="36" rx="12" ry="12"
    />

    <g id="upgrade-requirements">
      <rect width="132" height="32" x="0" y="8" fill="#9ddea3" />
      <polygon points="132 0 152 24 132 48" fill="#9ddea3" />
      <text x="12" y="30">
        upgrade-requirements
      </text>
    </g>
  </defs>

  <style>
    rect, polygon {
      filter: url(#shadow);
    }

    text {
      font: 12px sans-serif;
    }

    .file > text {
      font-weight: bold;
      transform: translate(12px, 24px);
    }

    .package > text {
       font-family: monospace;
       transform: translate(60px, 24px);
       text-anchor: middle;
    }
    .package-frozen > text {
       transform: translate(84px, 24px);
    }

    .package-box {
      fill: #fff2cc;
      stroke: #7F6000;
      stroke-width: 1px;
    }

    .frozen-box {
      fill: #e7d9df;
      stroke: #e1b3c7;
      stroke-width: 3px;
    }

    .line {
      stroke: #000;
      stroke-width: 1px;
    }
  </style>

  <svg x="24" y="24" class="file">
    <use href="#minimal-box" /><text>requirements-minimal.txt</text>

    <svg x="48" y="60" class="package">
       <use href="#package-box" /><text>package-one</text>
    </svg>
    <svg x="48" y="120" class="package">
       <use href="#package-box" /><text>package-two</text>
    </svg>
  </svg>

  <rect x="48" y="240" width="160" height="36" rx="6" ry="6" fill="#7fbbd7" />
  <text x="128" y="264" style="font-weight: bold; text-anchor: middle">
    application
  </text>

  <svg x="24" y="300" class="file">
    <use href="#minimal-box" /><text>requirements-dev-minimal.txt</text>

    <svg x="48" y="60" class="package">
       <use href="#package-box" /><text>package-three</text>
    </svg>
    <svg x="48" y="120" class="package">
       <use href="#package-box" /><text>package-four</text>
    </svg>
  </svg>

  <svg x="396" y="24" class="file">
    <rect width="480" height="240" rx="6" ry="6" class="frozen-box" />
    <text>requirements.txt</text>

    <svg x="48" y="60" class="package package-frozen">
       <use href="#package-frozen-box" /><text>package-one==1.0</text>
    </svg>
    <svg x="48" y="168" class="package package-frozen">
       <use href="#package-frozen-box" /><text>package-two==1.2</text>
    </svg>
    <svg x="264" y="24" class="package package-frozen">
       <use href="#package-frozen-box" /><text>package-five==1.4</text>
    </svg>
    <svg x="264" y="72" class="package package-frozen">
       <use href="#package-frozen-box" /><text>package-six==1.9</text>
    </svg>
    <svg x="264" y="138" class="package package-frozen">
       <use href="#package-frozen-box" /><text>package-seven==1.7</text>
    </svg>
    <svg x="264" y="186" class="package package-frozen">
       <use href="#package-frozen-box" /><text>package-eight==1.7</text>
    </svg>
  </svg>

  <svg x="396" y="300" class="file">
    <rect width="480" height="180" rx="6" ry="6" class="frozen-box" />
    <text>requirements-dev.txt</text>

    <svg x="48" y="60" class="package package-frozen">
       <use href="#package-frozen-box" /><text>package-three==1.3</text>
    </svg>
    <svg x="48" y="120" class="package package-frozen">
       <use href="#package-frozen-box" /><text>package-four==1.4</text>
    </svg>
    <svg x="264" y="90" class="package package-frozen">
       <use href="#package-frozen-box" /><text>package-nine==1.1</text>
    </svg>
  </svg>

  <svg x="252" y="112"><use href="#upgrade-requirements" /></svg>
  <svg x="252" y="390"><use href="#upgrade-requirements" /></svg>

  <!-- vertical left line -->
  <line x1="12" y1="102" x2="12" y2="438" class="line" />

  <!-- lines to minimal 1 and 2 -->
  <line x1="12" y1="102" x2="72" y2="102" class="line" />
  <line x1="12" y1="162" x2="72" y2="162" class="line" />

  <!-- line to "application" -->
  <line x1="12" y1="258" x2="48" y2="258" class="line" />

  <!-- lines to minimal 3 and 4 -->
  <line x1="12" y1="378" x2="72" y2="378" class="line" />
  <line x1="12" y1="438" x2="72" y2="438" class="line" />

  <!-- lines from frozen 1 -->
  <line x1="612" y1="102" x2="636" y2="102" class="line" />
  <line x1="636" y1="66" x2="636" y2="118" class="line" />
  <line x1="636" y1="66" x2="660" y2="66" class="line" />
  <line x1="636" y1="118" x2="660" y2="118" class="line" />

  <!-- lines from frozen 2 -->
  <line x1="612" y1="212" x2="636" y2="212" class="line" />
  <line x1="636" y1="182" x2="636" y2="228" class="line" />
  <line x1="636" y1="182" x2="660" y2="182" class="line" />
  <line x1="636" y1="228" x2="660" y2="228" class="line" />

  <!-- lines from frozen 3 -->
  <line x1="612" y1="376" x2="744" y2="376" class="line" />
  <line x1="744" y1="376" x2="744" y2="246" class="line" />

  <!-- lines from frozen 4 -->
  <line x1="612" y1="438" x2="636" y2="438" class="line" />
  <line x1="636" y1="438" x2="636" y2="408" class="line" />
  <line x1="636" y1="408" x2="660" y2="408" class="line" />

</svg>
